<svg width="32" height="32" viewBox="0 0 32 32" fill="none" xmlns="http://www.w3.org/2000/svg">
<rect x="0.5" y="0.5" width="31" height="31" rx="6.5" fill="white" stroke="#EBEBEB"/>
<path fill-rule="evenodd" clip-rule="evenodd" d="M16.0008 10.9164C15.855 10.8032 15.701 10.6993 15.5389 10.6047C14.8616 10.2093 14.0821 10 13.2831 10C12.7078 10 12.1504 10.1054 11.6237 10.3148C11.1148 10.5163 10.6562 10.8063 10.2624 11.1753C9.87023 11.5414 9.55695 11.9776 9.34032 12.4592C9.11506 12.96 9 13.4918 9 14.0392C9 14.5555 9.1102 15.0935 9.32897 15.6409C9.5121 16.0983 9.77463 16.5727 10.1101 17.0519C10.6416 17.8101 11.3725 18.6008 12.28 19.4025C13.7839 20.7313 15.2732 21.6492 15.3364 21.6864L15.7204 21.9221C15.8906 22.026 16.1094 22.026 16.2795 21.9221L16.6636 21.6864C16.7268 21.6476 18.2145 20.7313 19.72 19.4025C20.6275 18.6008 21.3584 17.8101 21.8899 17.0519C22.2254 16.5727 22.4895 16.0983 22.671 15.6409C22.8898 15.0935 23 14.5555 23 14.0392C23.0016 13.4918 22.8865 12.96 22.6613 12.4592C22.4441 11.9779 22.1309 11.5418 21.7392 11.1753C21.3472 10.8077 20.8851 10.5155 20.3779 10.3148C19.852 10.1057 19.288 9.99876 18.7185 10C17.9195 10 17.1401 10.2093 16.4627 10.6047C16.3006 10.6993 16.1467 10.8032 16.0008 10.9164ZM20.7902 12.1162L20.7913 12.1172C21.0558 12.3648 21.2669 12.6588 21.4131 12.9825C21.5642 13.3188 21.64 13.6714 21.6389 14.0354V14.0392C21.6389 14.3743 21.5674 14.7525 21.401 15.1688L21.3998 15.1718C21.2624 15.5182 21.0513 15.9039 20.7618 16.3174C20.3051 16.9688 19.6519 17.6826 18.801 18.4343C17.5464 19.5416 16.2982 20.3491 15.9996 20.5374C15.887 20.4668 15.5766 20.2685 15.1513 19.9689C14.6108 19.5882 13.9041 19.0573 13.1994 18.4346C12.3481 17.6826 11.6947 16.9686 11.2378 16.317C10.9504 15.9063 10.7394 15.5194 10.599 15.1688C10.4328 14.7528 10.3611 14.3742 10.3611 14.0392C10.3611 13.6722 10.4377 13.318 10.589 12.9814C10.7344 12.6583 10.9449 12.365 11.2091 12.1183L11.211 12.1166C11.4802 11.8643 11.7923 11.6669 12.1409 11.5288L12.1423 11.5282C12.5022 11.3852 12.8832 11.3125 13.2831 11.3125C13.8353 11.3125 14.3708 11.4571 14.8342 11.7276C14.945 11.7923 15.0493 11.8627 15.1474 11.9389L15.91 12.5307L16.1139 12.5134L16.8542 11.9389C16.9523 11.8627 17.0566 11.7923 17.1675 11.7275C17.6309 11.4571 18.1664 11.3125 18.7185 11.3125L18.7216 11.3125C19.1123 11.3116 19.499 11.3851 19.8592 11.5282L19.861 11.5289C20.2078 11.6662 20.5232 11.8657 20.7902 12.1162Z" fill="#E2E2E2"/>
</svg>
